<svg width="48" height="48" viewBox="0 0 48 48" fill="none" xmlns="http://www.w3.org/2000/svg">
<path d="M43.42 40.58L36 33.22C38.8802 29.6288 40.275 25.0706 39.8976 20.4826C39.5202 15.8946 37.3993 11.6256 33.971 8.55329C30.5427 5.48101 26.0676 3.83902 21.4658 3.96494C16.8641 4.09086 12.4854 5.97512 9.23028 9.23028C5.97512 12.4854 4.09086 16.8641 3.96494 21.4658C3.83902 26.0676 5.48101 30.5427 8.55329 33.971C11.6256 37.3993 15.8946 39.5202 20.4826 39.8976C25.0706 40.275 29.6288 38.8802 33.22 36L40.58 43.36C40.7659 43.5475 40.9871 43.6962 41.2308 43.7978C41.4746 43.8993 41.736 43.9516 42 43.9516C42.264 43.9516 42.5254 43.8993 42.7692 43.7978C43.0129 43.6962 43.2341 43.5475 43.42 43.36C43.7805 42.9871 43.982 42.4887 43.982 41.97C43.982 41.4513 43.7805 40.9529 43.42 40.58ZM22 36C19.2311 36 16.5243 35.1789 14.222 33.6406C11.9197 32.1022 10.1253 29.9157 9.06569 27.3576C8.00606 24.7994 7.72881 21.9845 8.26901 19.2687C8.8092 16.553 10.1426 14.0584 12.1005 12.1005C14.0584 10.1426 16.553 8.8092 19.2687 8.26901C21.9845 7.72881 24.7994 8.00606 27.3576 9.06569C29.9157 10.1253 32.1022 11.9197 33.6406 14.222C35.1789 16.5243 36 19.2311 36 22C36 25.713 34.525 29.274 31.8995 31.8995C29.274 34.525 25.713 36 22 36Z" fill="#424866"/>
</svg>
